<mxfile host="app.diagrams.net" agent="Mozilla/5.0 (Macintosh; Intel Mac OS X 10_15_7) AppleWebKit/537.36 (KHTML, like Gecko) Chrome/136.0.0.0 Safari/537.36" version="27.1.4" pages="2">
  <diagram id="C5RBs43oDa-KdzZeNtuy" name="Page-1">
    <mxGraphModel dx="1473" dy="790" grid="1" gridSize="10" guides="1" tooltips="1" connect="1" arrows="1" fold="1" page="1" pageScale="1" pageWidth="827" pageHeight="1169" math="0" shadow="0">
      <root>
        <mxCell id="WIyWlLk6GJQsqaUBKTNV-0" />
        <mxCell id="WIyWlLk6GJQsqaUBKTNV-1" parent="WIyWlLk6GJQsqaUBKTNV-0" />
        <mxCell id="ZNeexv2HDmzcyoQZHS-4-34" value="&lt;div&gt;&lt;br&gt;&lt;/div&gt;&lt;div&gt;&lt;br&gt;&lt;/div&gt;&lt;div&gt;&lt;br&gt;&lt;/div&gt;&lt;div&gt;&lt;br&gt;&lt;/div&gt;&lt;div&gt;&lt;br&gt;&lt;/div&gt;&lt;div&gt;&lt;br&gt;&lt;/div&gt;&lt;div&gt;&lt;br&gt;&lt;/div&gt;&lt;div&gt;&lt;br&gt;&lt;/div&gt;&lt;div&gt;&lt;br&gt;&lt;/div&gt;&lt;div&gt;&lt;br&gt;&lt;/div&gt;&lt;div&gt;&lt;br&gt;&lt;/div&gt;&lt;div&gt;&lt;br&gt;&lt;/div&gt;&lt;div&gt;&lt;font style=&quot;font-size: 36px;&quot;&gt;&lt;br&gt;&lt;/font&gt;&lt;/div&gt;&lt;div&gt;&lt;font style=&quot;font-size: 36px;&quot;&gt;&lt;br&gt;&lt;/font&gt;&lt;/div&gt;&lt;div&gt;&lt;font style=&quot;font-size: 36px;&quot;&gt;&lt;br&gt;&lt;/font&gt;&lt;/div&gt;&lt;div&gt;&lt;font style=&quot;font-size: 36px;&quot;&gt;&lt;br&gt;&lt;/font&gt;&lt;/div&gt;&lt;div&gt;&lt;font style=&quot;font-size: 36px;&quot;&gt;Dashboard&lt;/font&gt;&lt;/div&gt;" style="rounded=0;whiteSpace=wrap;html=1;dashed=1;dashPattern=12 12;" parent="WIyWlLk6GJQsqaUBKTNV-1" vertex="1">
          <mxGeometry x="690" y="390" width="810" height="500" as="geometry" />
        </mxCell>
        <mxCell id="ZNeexv2HDmzcyoQZHS-4-5" style="edgeStyle=orthogonalEdgeStyle;rounded=0;orthogonalLoop=1;jettySize=auto;html=1;" parent="WIyWlLk6GJQsqaUBKTNV-1" source="ZNeexv2HDmzcyoQZHS-4-1" target="ZNeexv2HDmzcyoQZHS-4-4" edge="1">
          <mxGeometry relative="1" as="geometry">
            <Array as="points">
              <mxPoint x="320" y="590" />
              <mxPoint x="320" y="640" />
            </Array>
          </mxGeometry>
        </mxCell>
        <mxCell id="ZNeexv2HDmzcyoQZHS-4-1" value="Salesforce" style="rounded=1;whiteSpace=wrap;html=1;fontSize=12;glass=0;strokeWidth=1;shadow=0;" parent="WIyWlLk6GJQsqaUBKTNV-1" vertex="1">
          <mxGeometry x="90" y="570" width="120" height="40" as="geometry" />
        </mxCell>
        <mxCell id="ZNeexv2HDmzcyoQZHS-4-6" style="edgeStyle=orthogonalEdgeStyle;rounded=0;orthogonalLoop=1;jettySize=auto;html=1;entryX=0;entryY=0.5;entryDx=0;entryDy=0;" parent="WIyWlLk6GJQsqaUBKTNV-1" source="ZNeexv2HDmzcyoQZHS-4-2" target="ZNeexv2HDmzcyoQZHS-4-4" edge="1">
          <mxGeometry relative="1" as="geometry">
            <Array as="points">
              <mxPoint x="320" y="670" />
              <mxPoint x="320" y="640" />
            </Array>
          </mxGeometry>
        </mxCell>
        <mxCell id="ZNeexv2HDmzcyoQZHS-4-2" value="Dashboard Support Tool" style="rounded=1;whiteSpace=wrap;html=1;fontSize=12;glass=0;strokeWidth=1;shadow=0;" parent="WIyWlLk6GJQsqaUBKTNV-1" vertex="1">
          <mxGeometry x="90" y="650" width="170" height="40" as="geometry" />
        </mxCell>
        <mxCell id="ZNeexv2HDmzcyoQZHS-4-7" style="edgeStyle=orthogonalEdgeStyle;rounded=0;orthogonalLoop=1;jettySize=auto;html=1;entryX=0;entryY=0.5;entryDx=0;entryDy=0;" parent="WIyWlLk6GJQsqaUBKTNV-1" source="ZNeexv2HDmzcyoQZHS-4-3" target="ZNeexv2HDmzcyoQZHS-4-4" edge="1">
          <mxGeometry relative="1" as="geometry">
            <Array as="points">
              <mxPoint x="320" y="750" />
              <mxPoint x="320" y="640" />
            </Array>
          </mxGeometry>
        </mxCell>
        <mxCell id="ZNeexv2HDmzcyoQZHS-4-3" value="Other Platform" style="rounded=1;whiteSpace=wrap;html=1;fontSize=12;glass=0;strokeWidth=1;shadow=0;" parent="WIyWlLk6GJQsqaUBKTNV-1" vertex="1">
          <mxGeometry x="90" y="730" width="120" height="40" as="geometry" />
        </mxCell>
        <mxCell id="ZNeexv2HDmzcyoQZHS-4-9" style="edgeStyle=orthogonalEdgeStyle;rounded=0;orthogonalLoop=1;jettySize=auto;html=1;entryX=0;entryY=0.5;entryDx=0;entryDy=0;" parent="WIyWlLk6GJQsqaUBKTNV-1" source="ZNeexv2HDmzcyoQZHS-4-4" target="ZNeexv2HDmzcyoQZHS-4-28" edge="1">
          <mxGeometry relative="1" as="geometry">
            <Array as="points">
              <mxPoint x="720" y="640" />
              <mxPoint x="720" y="550" />
            </Array>
          </mxGeometry>
        </mxCell>
        <mxCell id="ZNeexv2HDmzcyoQZHS-4-4" value="JWT token&lt;div&gt;(RS 256)&lt;/div&gt;" style="shape=parallelogram;perimeter=parallelogramPerimeter;whiteSpace=wrap;html=1;fixedSize=1;" parent="WIyWlLk6GJQsqaUBKTNV-1" vertex="1">
          <mxGeometry x="370" y="610" width="150" height="60" as="geometry" />
        </mxCell>
        <mxCell id="ZNeexv2HDmzcyoQZHS-4-8" value="Login success&lt;div&gt;(user session token)&lt;/div&gt;" style="rounded=1;whiteSpace=wrap;html=1;fontSize=12;glass=0;strokeWidth=1;shadow=0;" parent="WIyWlLk6GJQsqaUBKTNV-1" vertex="1">
          <mxGeometry x="1200" y="530" width="180" height="40" as="geometry" />
        </mxCell>
        <mxCell id="ZNeexv2HDmzcyoQZHS-4-11" style="edgeStyle=orthogonalEdgeStyle;rounded=0;orthogonalLoop=1;jettySize=auto;html=1;exitX=0.5;exitY=0;exitDx=0;exitDy=0;" parent="WIyWlLk6GJQsqaUBKTNV-1" source="ZNeexv2HDmzcyoQZHS-4-12" target="ZNeexv2HDmzcyoQZHS-4-4" edge="1">
          <mxGeometry relative="1" as="geometry">
            <mxPoint x="487" y="740" as="sourcePoint" />
          </mxGeometry>
        </mxCell>
        <mxCell id="ZNeexv2HDmzcyoQZHS-4-12" value="JWT token" style="swimlane;fontStyle=0;childLayout=stackLayout;horizontal=1;startSize=30;horizontalStack=0;resizeParent=1;resizeParentMax=0;resizeLast=0;collapsible=1;marginBottom=0;whiteSpace=wrap;html=1;" parent="WIyWlLk6GJQsqaUBKTNV-1" vertex="1">
          <mxGeometry x="363" y="760" width="257" height="300" as="geometry" />
        </mxCell>
        <mxCell id="ZNeexv2HDmzcyoQZHS-4-13" value="User Business Id" style="text;strokeColor=none;fillColor=none;align=left;verticalAlign=middle;spacingLeft=4;spacingRight=4;overflow=hidden;points=[[0,0.5],[1,0.5]];portConstraint=eastwest;rotatable=0;whiteSpace=wrap;html=1;" parent="ZNeexv2HDmzcyoQZHS-4-12" vertex="1">
          <mxGeometry y="30" width="257" height="30" as="geometry" />
        </mxCell>
        <mxCell id="ZNeexv2HDmzcyoQZHS-4-14" value="User Integration Id" style="text;strokeColor=none;fillColor=none;align=left;verticalAlign=middle;spacingLeft=4;spacingRight=4;overflow=hidden;points=[[0,0.5],[1,0.5]];portConstraint=eastwest;rotatable=0;whiteSpace=wrap;html=1;" parent="ZNeexv2HDmzcyoQZHS-4-12" vertex="1">
          <mxGeometry y="60" width="257" height="30" as="geometry" />
        </mxCell>
        <mxCell id="ZNeexv2HDmzcyoQZHS-4-21" value="User Role" style="text;strokeColor=none;fillColor=none;align=left;verticalAlign=middle;spacingLeft=4;spacingRight=4;overflow=hidden;points=[[0,0.5],[1,0.5]];portConstraint=eastwest;rotatable=0;whiteSpace=wrap;html=1;" parent="ZNeexv2HDmzcyoQZHS-4-12" vertex="1">
          <mxGeometry y="90" width="257" height="30" as="geometry" />
        </mxCell>
        <mxCell id="ZNeexv2HDmzcyoQZHS-4-15" value="Internal User Email" style="text;strokeColor=none;fillColor=none;align=left;verticalAlign=middle;spacingLeft=4;spacingRight=4;overflow=hidden;points=[[0,0.5],[1,0.5]];portConstraint=eastwest;rotatable=0;whiteSpace=wrap;html=1;" parent="ZNeexv2HDmzcyoQZHS-4-12" vertex="1">
          <mxGeometry y="120" width="257" height="30" as="geometry" />
        </mxCell>
        <mxCell id="ZNeexv2HDmzcyoQZHS-4-16" value="Internal User Role" style="text;strokeColor=none;fillColor=none;align=left;verticalAlign=middle;spacingLeft=4;spacingRight=4;overflow=hidden;points=[[0,0.5],[1,0.5]];portConstraint=eastwest;rotatable=0;whiteSpace=wrap;html=1;" parent="ZNeexv2HDmzcyoQZHS-4-12" vertex="1">
          <mxGeometry y="150" width="257" height="30" as="geometry" />
        </mxCell>
        <mxCell id="ZNeexv2HDmzcyoQZHS-4-17" value="Internal User Profile" style="text;strokeColor=none;fillColor=none;align=left;verticalAlign=middle;spacingLeft=4;spacingRight=4;overflow=hidden;points=[[0,0.5],[1,0.5]];portConstraint=eastwest;rotatable=0;whiteSpace=wrap;html=1;" parent="ZNeexv2HDmzcyoQZHS-4-12" vertex="1">
          <mxGeometry y="180" width="257" height="30" as="geometry" />
        </mxCell>
        <mxCell id="ZNeexv2HDmzcyoQZHS-4-18" value="Internal User First Name" style="text;strokeColor=none;fillColor=none;align=left;verticalAlign=middle;spacingLeft=4;spacingRight=4;overflow=hidden;points=[[0,0.5],[1,0.5]];portConstraint=eastwest;rotatable=0;whiteSpace=wrap;html=1;" parent="ZNeexv2HDmzcyoQZHS-4-12" vertex="1">
          <mxGeometry y="210" width="257" height="30" as="geometry" />
        </mxCell>
        <mxCell id="ZNeexv2HDmzcyoQZHS-4-19" value="Internal User Last Name" style="text;strokeColor=none;fillColor=none;align=left;verticalAlign=middle;spacingLeft=4;spacingRight=4;overflow=hidden;points=[[0,0.5],[1,0.5]];portConstraint=eastwest;rotatable=0;whiteSpace=wrap;html=1;" parent="ZNeexv2HDmzcyoQZHS-4-12" vertex="1">
          <mxGeometry y="240" width="257" height="30" as="geometry" />
        </mxCell>
        <mxCell id="ZNeexv2HDmzcyoQZHS-4-20" value="... Other business related information&amp;nbsp;" style="text;strokeColor=none;fillColor=none;align=left;verticalAlign=middle;spacingLeft=4;spacingRight=4;overflow=hidden;points=[[0,0.5],[1,0.5]];portConstraint=eastwest;rotatable=0;whiteSpace=wrap;html=1;" parent="ZNeexv2HDmzcyoQZHS-4-12" vertex="1">
          <mxGeometry y="270" width="257" height="30" as="geometry" />
        </mxCell>
        <mxCell id="ZNeexv2HDmzcyoQZHS-4-27" style="edgeStyle=orthogonalEdgeStyle;rounded=0;orthogonalLoop=1;jettySize=auto;html=1;entryX=0.5;entryY=0;entryDx=0;entryDy=0;" parent="WIyWlLk6GJQsqaUBKTNV-1" source="ZNeexv2HDmzcyoQZHS-4-22" target="ZNeexv2HDmzcyoQZHS-4-23" edge="1">
          <mxGeometry relative="1" as="geometry" />
        </mxCell>
        <mxCell id="ZNeexv2HDmzcyoQZHS-4-22" value="Actor" style="shape=umlActor;verticalLabelPosition=bottom;verticalAlign=top;html=1;outlineConnect=0;" parent="WIyWlLk6GJQsqaUBKTNV-1" vertex="1">
          <mxGeometry x="1275" y="110" width="30" height="60" as="geometry" />
        </mxCell>
        <mxCell id="ZNeexv2HDmzcyoQZHS-4-23" value="Authentication" style="swimlane;fontStyle=0;childLayout=stackLayout;horizontal=1;startSize=30;horizontalStack=0;resizeParent=1;resizeParentMax=0;resizeLast=0;collapsible=1;marginBottom=0;whiteSpace=wrap;html=1;" parent="WIyWlLk6GJQsqaUBKTNV-1" vertex="1">
          <mxGeometry x="1220" y="260" width="140" height="90" as="geometry" />
        </mxCell>
        <mxCell id="ZNeexv2HDmzcyoQZHS-4-24" value="User Name" style="text;strokeColor=none;fillColor=none;align=left;verticalAlign=middle;spacingLeft=4;spacingRight=4;overflow=hidden;points=[[0,0.5],[1,0.5]];portConstraint=eastwest;rotatable=0;whiteSpace=wrap;html=1;" parent="ZNeexv2HDmzcyoQZHS-4-23" vertex="1">
          <mxGeometry y="30" width="140" height="30" as="geometry" />
        </mxCell>
        <mxCell id="ZNeexv2HDmzcyoQZHS-4-25" value="Passowrd" style="text;strokeColor=none;fillColor=none;align=left;verticalAlign=middle;spacingLeft=4;spacingRight=4;overflow=hidden;points=[[0,0.5],[1,0.5]];portConstraint=eastwest;rotatable=0;whiteSpace=wrap;html=1;" parent="ZNeexv2HDmzcyoQZHS-4-23" vertex="1">
          <mxGeometry y="60" width="140" height="30" as="geometry" />
        </mxCell>
        <mxCell id="ZNeexv2HDmzcyoQZHS-4-29" style="edgeStyle=orthogonalEdgeStyle;rounded=0;orthogonalLoop=1;jettySize=auto;html=1;entryX=0;entryY=0.5;entryDx=0;entryDy=0;" parent="WIyWlLk6GJQsqaUBKTNV-1" source="ZNeexv2HDmzcyoQZHS-4-28" target="ZNeexv2HDmzcyoQZHS-4-31" edge="1">
          <mxGeometry relative="1" as="geometry" />
        </mxCell>
        <mxCell id="ZNeexv2HDmzcyoQZHS-4-28" value="Decrypted token" style="shape=parallelogram;perimeter=parallelogramPerimeter;whiteSpace=wrap;html=1;fixedSize=1;" parent="WIyWlLk6GJQsqaUBKTNV-1" vertex="1">
          <mxGeometry x="760" y="520" width="140" height="60" as="geometry" />
        </mxCell>
        <mxCell id="ZNeexv2HDmzcyoQZHS-4-32" style="edgeStyle=orthogonalEdgeStyle;rounded=0;orthogonalLoop=1;jettySize=auto;html=1;entryX=0;entryY=0.5;entryDx=0;entryDy=0;" parent="WIyWlLk6GJQsqaUBKTNV-1" source="ZNeexv2HDmzcyoQZHS-4-31" edge="1">
          <mxGeometry relative="1" as="geometry">
            <mxPoint x="1200" y="550" as="targetPoint" />
          </mxGeometry>
        </mxCell>
        <mxCell id="ZNeexv2HDmzcyoQZHS-4-31" value="Find User information&lt;div&gt;(business Id)&lt;/div&gt;" style="shape=parallelogram;perimeter=parallelogramPerimeter;whiteSpace=wrap;html=1;fixedSize=1;" parent="WIyWlLk6GJQsqaUBKTNV-1" vertex="1">
          <mxGeometry x="970" y="520" width="180" height="60" as="geometry" />
        </mxCell>
        <mxCell id="ZNeexv2HDmzcyoQZHS-4-35" value="&lt;h1 style=&quot;margin-top: 0px;&quot;&gt;&lt;font style=&quot;font-size: 36px;&quot;&gt;Performance Dashboard&lt;/font&gt;&lt;/h1&gt;&lt;p&gt;Dashboard login flow, include impersonation and normal user login flow&lt;/p&gt;" style="text;html=1;whiteSpace=wrap;overflow=hidden;rounded=0;" parent="WIyWlLk6GJQsqaUBKTNV-1" vertex="1">
          <mxGeometry x="1160" y="1000" width="455" height="120" as="geometry" />
        </mxCell>
        <mxCell id="ZNeexv2HDmzcyoQZHS-4-44" style="edgeStyle=orthogonalEdgeStyle;rounded=0;orthogonalLoop=1;jettySize=auto;html=1;" parent="WIyWlLk6GJQsqaUBKTNV-1" source="ZNeexv2HDmzcyoQZHS-4-36" target="ZNeexv2HDmzcyoQZHS-4-41" edge="1">
          <mxGeometry relative="1" as="geometry">
            <Array as="points">
              <mxPoint x="1430" y="450" />
              <mxPoint x="1430" y="720" />
            </Array>
          </mxGeometry>
        </mxCell>
        <mxCell id="ZNeexv2HDmzcyoQZHS-4-36" value="authentication" style="shape=parallelogram;perimeter=parallelogramPerimeter;whiteSpace=wrap;html=1;fixedSize=1;" parent="WIyWlLk6GJQsqaUBKTNV-1" vertex="1">
          <mxGeometry x="1210" y="420" width="140" height="60" as="geometry" />
        </mxCell>
        <mxCell id="ZNeexv2HDmzcyoQZHS-4-37" style="edgeStyle=orthogonalEdgeStyle;rounded=0;orthogonalLoop=1;jettySize=auto;html=1;entryX=0.5;entryY=0;entryDx=0;entryDy=0;" parent="WIyWlLk6GJQsqaUBKTNV-1" source="ZNeexv2HDmzcyoQZHS-4-25" target="ZNeexv2HDmzcyoQZHS-4-36" edge="1">
          <mxGeometry relative="1" as="geometry">
            <Array as="points">
              <mxPoint x="1280" y="370" />
              <mxPoint x="1280" y="370" />
            </Array>
          </mxGeometry>
        </mxCell>
        <mxCell id="ZNeexv2HDmzcyoQZHS-4-38" style="edgeStyle=orthogonalEdgeStyle;rounded=0;orthogonalLoop=1;jettySize=auto;html=1;entryX=0.45;entryY=0.088;entryDx=0;entryDy=0;entryPerimeter=0;" parent="WIyWlLk6GJQsqaUBKTNV-1" source="ZNeexv2HDmzcyoQZHS-4-36" target="ZNeexv2HDmzcyoQZHS-4-8" edge="1">
          <mxGeometry relative="1" as="geometry" />
        </mxCell>
        <mxCell id="ZNeexv2HDmzcyoQZHS-4-41" value="User DB" style="shape=cylinder3;whiteSpace=wrap;html=1;boundedLbl=1;backgroundOutline=1;size=15;" parent="WIyWlLk6GJQsqaUBKTNV-1" vertex="1">
          <mxGeometry x="1260" y="670" width="60" height="80" as="geometry" />
        </mxCell>
        <mxCell id="ZNeexv2HDmzcyoQZHS-4-42" style="edgeStyle=orthogonalEdgeStyle;rounded=0;orthogonalLoop=1;jettySize=auto;html=1;entryX=0;entryY=0;entryDx=0;entryDy=52.5;entryPerimeter=0;" parent="WIyWlLk6GJQsqaUBKTNV-1" source="ZNeexv2HDmzcyoQZHS-4-31" target="ZNeexv2HDmzcyoQZHS-4-41" edge="1">
          <mxGeometry relative="1" as="geometry">
            <Array as="points">
              <mxPoint x="1060" y="723" />
            </Array>
          </mxGeometry>
        </mxCell>
      </root>
    </mxGraphModel>
  </diagram>
  <diagram id="4oXlSEmWeD2HA3diBjfM" name="Page-2">
    <mxGraphModel dx="2706" dy="1486" grid="1" gridSize="10" guides="1" tooltips="1" connect="1" arrows="1" fold="1" page="1" pageScale="1" pageWidth="850" pageHeight="1100" math="0" shadow="0">
      <root>
        <mxCell id="0" />
        <mxCell id="1" parent="0" />
        <mxCell id="t50aKcJqjb51uHy66qTZ-31" style="edgeStyle=orthogonalEdgeStyle;rounded=0;orthogonalLoop=1;jettySize=auto;html=1;entryX=0.5;entryY=0;entryDx=0;entryDy=0;" edge="1" parent="1" source="t50aKcJqjb51uHy66qTZ-3" target="t50aKcJqjb51uHy66qTZ-4">
          <mxGeometry relative="1" as="geometry" />
        </mxCell>
        <mxCell id="t50aKcJqjb51uHy66qTZ-3" value="Actor" style="shape=umlActor;verticalLabelPosition=bottom;verticalAlign=top;html=1;outlineConnect=0;" vertex="1" parent="1">
          <mxGeometry x="50" y="140" width="30" height="60" as="geometry" />
        </mxCell>
        <mxCell id="t50aKcJqjb51uHy66qTZ-6" style="edgeStyle=orthogonalEdgeStyle;rounded=0;orthogonalLoop=1;jettySize=auto;html=1;entryX=0;entryY=0.5;entryDx=0;entryDy=0;" edge="1" parent="1" source="t50aKcJqjb51uHy66qTZ-4" target="t50aKcJqjb51uHy66qTZ-5">
          <mxGeometry relative="1" as="geometry" />
        </mxCell>
        <mxCell id="t50aKcJqjb51uHy66qTZ-7" value="Yes" style="edgeLabel;html=1;align=center;verticalAlign=middle;resizable=0;points=[];" vertex="1" connectable="0" parent="t50aKcJqjb51uHy66qTZ-6">
          <mxGeometry x="-0.3529" y="2" relative="1" as="geometry">
            <mxPoint as="offset" />
          </mxGeometry>
        </mxCell>
        <mxCell id="t50aKcJqjb51uHy66qTZ-9" value="" style="edgeStyle=orthogonalEdgeStyle;rounded=0;orthogonalLoop=1;jettySize=auto;html=1;" edge="1" parent="1" source="t50aKcJqjb51uHy66qTZ-4" target="t50aKcJqjb51uHy66qTZ-8">
          <mxGeometry relative="1" as="geometry" />
        </mxCell>
        <mxCell id="t50aKcJqjb51uHy66qTZ-10" value="No" style="edgeLabel;html=1;align=center;verticalAlign=middle;resizable=0;points=[];" vertex="1" connectable="0" parent="t50aKcJqjb51uHy66qTZ-9">
          <mxGeometry x="-0.4182" relative="1" as="geometry">
            <mxPoint as="offset" />
          </mxGeometry>
        </mxCell>
        <mxCell id="t50aKcJqjb51uHy66qTZ-4" value="is Login" style="rhombus;whiteSpace=wrap;html=1;" vertex="1" parent="1">
          <mxGeometry x="170" y="290" width="80" height="80" as="geometry" />
        </mxCell>
        <mxCell id="t50aKcJqjb51uHy66qTZ-5" value="Dashboard Next&lt;div&gt;(@auth0/nextjs-auth0)&lt;/div&gt;" style="rounded=0;whiteSpace=wrap;html=1;" vertex="1" parent="1">
          <mxGeometry x="410" y="300" width="130" height="60" as="geometry" />
        </mxCell>
        <mxCell id="t50aKcJqjb51uHy66qTZ-13" value="" style="edgeStyle=orthogonalEdgeStyle;rounded=0;orthogonalLoop=1;jettySize=auto;html=1;" edge="1" parent="1" source="t50aKcJqjb51uHy66qTZ-8" target="t50aKcJqjb51uHy66qTZ-12">
          <mxGeometry relative="1" as="geometry" />
        </mxCell>
        <mxCell id="t50aKcJqjb51uHy66qTZ-8" value="Auth0 Login" style="whiteSpace=wrap;html=1;" vertex="1" parent="1">
          <mxGeometry x="150" y="480" width="120" height="60" as="geometry" />
        </mxCell>
        <mxCell id="t50aKcJqjb51uHy66qTZ-15" value="" style="edgeStyle=orthogonalEdgeStyle;rounded=0;orthogonalLoop=1;jettySize=auto;html=1;" edge="1" parent="1" source="t50aKcJqjb51uHy66qTZ-12" target="t50aKcJqjb51uHy66qTZ-14">
          <mxGeometry relative="1" as="geometry" />
        </mxCell>
        <mxCell id="t50aKcJqjb51uHy66qTZ-12" value="&lt;div&gt;Custom Database&lt;/div&gt;" style="whiteSpace=wrap;html=1;" vertex="1" parent="1">
          <mxGeometry x="150" y="620" width="120" height="60" as="geometry" />
        </mxCell>
        <mxCell id="t50aKcJqjb51uHy66qTZ-17" value="" style="edgeStyle=orthogonalEdgeStyle;rounded=0;orthogonalLoop=1;jettySize=auto;html=1;" edge="1" parent="1" source="t50aKcJqjb51uHy66qTZ-14" target="t50aKcJqjb51uHy66qTZ-16">
          <mxGeometry relative="1" as="geometry" />
        </mxCell>
        <mxCell id="t50aKcJqjb51uHy66qTZ-14" value="Api Gateway" style="whiteSpace=wrap;html=1;" vertex="1" parent="1">
          <mxGeometry x="150" y="760" width="120" height="60" as="geometry" />
        </mxCell>
        <mxCell id="t50aKcJqjb51uHy66qTZ-21" value="" style="edgeStyle=orthogonalEdgeStyle;rounded=0;orthogonalLoop=1;jettySize=auto;html=1;" edge="1" parent="1" source="t50aKcJqjb51uHy66qTZ-16" target="t50aKcJqjb51uHy66qTZ-20">
          <mxGeometry relative="1" as="geometry" />
        </mxCell>
        <mxCell id="t50aKcJqjb51uHy66qTZ-16" value="eGenome" style="whiteSpace=wrap;html=1;" vertex="1" parent="1">
          <mxGeometry x="150" y="900" width="120" height="60" as="geometry" />
        </mxCell>
        <mxCell id="t50aKcJqjb51uHy66qTZ-22" style="edgeStyle=orthogonalEdgeStyle;rounded=0;orthogonalLoop=1;jettySize=auto;html=1;entryX=0.5;entryY=1;entryDx=0;entryDy=0;" edge="1" parent="1" source="t50aKcJqjb51uHy66qTZ-20" target="t50aKcJqjb51uHy66qTZ-5">
          <mxGeometry relative="1" as="geometry" />
        </mxCell>
        <mxCell id="t50aKcJqjb51uHy66qTZ-23" value="Yes" style="edgeLabel;html=1;align=center;verticalAlign=middle;resizable=0;points=[];" vertex="1" connectable="0" parent="t50aKcJqjb51uHy66qTZ-22">
          <mxGeometry x="-0.7656" y="-1" relative="1" as="geometry">
            <mxPoint as="offset" />
          </mxGeometry>
        </mxCell>
        <mxCell id="t50aKcJqjb51uHy66qTZ-24" style="edgeStyle=orthogonalEdgeStyle;rounded=0;orthogonalLoop=1;jettySize=auto;html=1;entryX=0;entryY=0.5;entryDx=0;entryDy=0;" edge="1" parent="1" source="t50aKcJqjb51uHy66qTZ-20" target="t50aKcJqjb51uHy66qTZ-8">
          <mxGeometry relative="1" as="geometry">
            <Array as="points">
              <mxPoint x="90" y="1075" />
              <mxPoint x="90" y="510" />
            </Array>
          </mxGeometry>
        </mxCell>
        <mxCell id="t50aKcJqjb51uHy66qTZ-25" value="No" style="edgeLabel;html=1;align=center;verticalAlign=middle;resizable=0;points=[];" vertex="1" connectable="0" parent="t50aKcJqjb51uHy66qTZ-24">
          <mxGeometry x="-0.3739" relative="1" as="geometry">
            <mxPoint as="offset" />
          </mxGeometry>
        </mxCell>
        <mxCell id="t50aKcJqjb51uHy66qTZ-20" value="Authentication" style="rhombus;whiteSpace=wrap;html=1;" vertex="1" parent="1">
          <mxGeometry x="155" y="1030" width="110" height="90" as="geometry" />
        </mxCell>
        <mxCell id="t50aKcJqjb51uHy66qTZ-27" style="edgeStyle=orthogonalEdgeStyle;rounded=0;orthogonalLoop=1;jettySize=auto;html=1;entryX=0;entryY=0.5;entryDx=0;entryDy=0;" edge="1" parent="1" source="t50aKcJqjb51uHy66qTZ-5" target="t50aKcJqjb51uHy66qTZ-36">
          <mxGeometry relative="1" as="geometry">
            <mxPoint x="610" y="365" as="targetPoint" />
          </mxGeometry>
        </mxCell>
        <mxCell id="t50aKcJqjb51uHy66qTZ-41" style="edgeStyle=orthogonalEdgeStyle;rounded=0;orthogonalLoop=1;jettySize=auto;html=1;" edge="1" parent="1" source="t50aKcJqjb51uHy66qTZ-34" target="t50aKcJqjb51uHy66qTZ-40">
          <mxGeometry relative="1" as="geometry" />
        </mxCell>
        <mxCell id="t50aKcJqjb51uHy66qTZ-34" value="UserObject" style="swimlane;fontStyle=0;childLayout=stackLayout;horizontal=1;startSize=30;horizontalStack=0;resizeParent=1;resizeParentMax=0;resizeLast=0;collapsible=1;marginBottom=0;whiteSpace=wrap;html=1;" vertex="1" parent="1">
          <mxGeometry x="640" y="255" width="140" height="120" as="geometry" />
        </mxCell>
        <mxCell id="t50aKcJqjb51uHy66qTZ-35" value="... standard user object" style="text;strokeColor=none;fillColor=none;align=left;verticalAlign=middle;spacingLeft=4;spacingRight=4;overflow=hidden;points=[[0,0.5],[1,0.5]];portConstraint=eastwest;rotatable=0;whiteSpace=wrap;html=1;" vertex="1" parent="t50aKcJqjb51uHy66qTZ-34">
          <mxGeometry y="30" width="140" height="30" as="geometry" />
        </mxCell>
        <mxCell id="t50aKcJqjb51uHy66qTZ-36" value="auth0.sub" style="text;strokeColor=none;fillColor=none;align=left;verticalAlign=middle;spacingLeft=4;spacingRight=4;overflow=hidden;points=[[0,0.5],[1,0.5]];portConstraint=eastwest;rotatable=0;whiteSpace=wrap;html=1;" vertex="1" parent="t50aKcJqjb51uHy66qTZ-34">
          <mxGeometry y="60" width="140" height="30" as="geometry" />
        </mxCell>
        <mxCell id="t50aKcJqjb51uHy66qTZ-37" value="auth0.accessToken" style="text;strokeColor=none;fillColor=none;align=left;verticalAlign=middle;spacingLeft=4;spacingRight=4;overflow=hidden;points=[[0,0.5],[1,0.5]];portConstraint=eastwest;rotatable=0;whiteSpace=wrap;html=1;" vertex="1" parent="t50aKcJqjb51uHy66qTZ-34">
          <mxGeometry y="90" width="140" height="30" as="geometry" />
        </mxCell>
        <mxCell id="t50aKcJqjb51uHy66qTZ-43" value="" style="edgeStyle=orthogonalEdgeStyle;rounded=0;orthogonalLoop=1;jettySize=auto;html=1;" edge="1" parent="1" source="t50aKcJqjb51uHy66qTZ-40" target="t50aKcJqjb51uHy66qTZ-42">
          <mxGeometry relative="1" as="geometry" />
        </mxCell>
        <mxCell id="seScycrZOChfOXxEmgS3-1" value="auth0 accessToken (JWK)" style="edgeLabel;html=1;align=center;verticalAlign=middle;resizable=0;points=[];" vertex="1" connectable="0" parent="t50aKcJqjb51uHy66qTZ-43">
          <mxGeometry x="0.025" y="1" relative="1" as="geometry">
            <mxPoint as="offset" />
          </mxGeometry>
        </mxCell>
        <mxCell id="t50aKcJqjb51uHy66qTZ-40" value="Write to browser storage" style="whiteSpace=wrap;html=1;" vertex="1" parent="1">
          <mxGeometry x="635" y="440" width="150" height="60" as="geometry" />
        </mxCell>
        <mxCell id="t50aKcJqjb51uHy66qTZ-42" value="Dashboard Overview&lt;div&gt;(Nodejs - expressJwt)&lt;/div&gt;" style="whiteSpace=wrap;html=1;" vertex="1" parent="1">
          <mxGeometry x="635" y="580" width="150" height="60" as="geometry" />
        </mxCell>
        <mxCell id="b0gTVYV09C4tsI-pkKJo-1" value="&lt;h1 style=&quot;margin-top: 0px;&quot;&gt;&lt;font style=&quot;font-weight: normal; font-size: 30px;&quot;&gt;&lt;font style=&quot;&quot;&gt;Performance Dashboard&amp;nbsp;&lt;/font&gt;&lt;span style=&quot;background-color: transparent; color: light-dark(rgb(0, 0, 0), rgb(255, 255, 255));&quot;&gt;Auth0 Login Flow&lt;/span&gt;&lt;/font&gt;&lt;/h1&gt;&lt;p&gt;&lt;br&gt;&lt;/p&gt;" style="text;html=1;whiteSpace=wrap;overflow=hidden;rounded=0;" vertex="1" parent="1">
          <mxGeometry x="130" y="30" width="590" height="70" as="geometry" />
        </mxCell>
      </root>
    </mxGraphModel>
  </diagram>
</mxfile>
